<mxfile host="app.diagrams.net" agent="Mozilla/5.0 (X11; Ubuntu; Linux x86_64; rv:137.0) Gecko/20100101 Firefox/137.0" version="26.2.13">
  <diagram name="Page-1" id="Qr1Dt3tRchDWBj-zdWVE">
    <mxGraphModel dx="1044" dy="584" grid="1" gridSize="10" guides="1" tooltips="1" connect="1" arrows="1" fold="1" page="1" pageScale="1" pageWidth="850" pageHeight="1100" math="0" shadow="0">
      <root>
        <mxCell id="0" />
        <mxCell id="1" parent="0" />
        <mxCell id="QOp0ti3etKmfNgTExBDU-3" value="" style="edgeStyle=orthogonalEdgeStyle;rounded=0;orthogonalLoop=1;jettySize=auto;html=1;strokeColor=light-dark(default, #4ebe2c);" parent="1" source="QOp0ti3etKmfNgTExBDU-1" target="QOp0ti3etKmfNgTExBDU-2" edge="1">
          <mxGeometry relative="1" as="geometry" />
        </mxCell>
        <mxCell id="QOp0ti3etKmfNgTExBDU-4" style="edgeStyle=orthogonalEdgeStyle;rounded=0;orthogonalLoop=1;jettySize=auto;html=1;strokeColor=light-dark(#000000,#33FF33);" parent="1" source="QOp0ti3etKmfNgTExBDU-1" target="QOp0ti3etKmfNgTExBDU-2" edge="1">
          <mxGeometry relative="1" as="geometry" />
        </mxCell>
        <mxCell id="QOp0ti3etKmfNgTExBDU-8" style="edgeStyle=orthogonalEdgeStyle;rounded=0;orthogonalLoop=1;jettySize=auto;html=1;entryX=1;entryY=0.5;entryDx=0;entryDy=0;strokeColor=light-dark(#000000,#33FF33);" parent="1" source="QOp0ti3etKmfNgTExBDU-1" target="QOp0ti3etKmfNgTExBDU-6" edge="1">
          <mxGeometry relative="1" as="geometry" />
        </mxCell>
        <mxCell id="QOp0ti3etKmfNgTExBDU-1" value="&lt;b&gt;HOME&lt;/b&gt;" style="rounded=1;whiteSpace=wrap;html=1;strokeColor=light-dark(#000000,#00FF00);" parent="1" vertex="1">
          <mxGeometry x="360" y="90" width="120" height="60" as="geometry" />
        </mxCell>
        <mxCell id="QOp0ti3etKmfNgTExBDU-10" style="edgeStyle=orthogonalEdgeStyle;rounded=0;orthogonalLoop=1;jettySize=auto;html=1;entryX=0.5;entryY=0;entryDx=0;entryDy=0;strokeColor=light-dark(#000000,#00FF00);" parent="1" source="QOp0ti3etKmfNgTExBDU-2" target="QOp0ti3etKmfNgTExBDU-11" edge="1">
          <mxGeometry relative="1" as="geometry">
            <mxPoint x="420" y="460" as="targetPoint" />
          </mxGeometry>
        </mxCell>
        <mxCell id="QOp0ti3etKmfNgTExBDU-2" value="&lt;b&gt;Clicar na página &quot;Área do participante&quot;&lt;/b&gt;" style="whiteSpace=wrap;html=1;strokeColor=light-dark(#000000,#00FF00);rounded=0;" parent="1" vertex="1">
          <mxGeometry x="360" y="330" width="120" height="60" as="geometry" />
        </mxCell>
        <mxCell id="QOp0ti3etKmfNgTExBDU-9" style="edgeStyle=orthogonalEdgeStyle;rounded=0;orthogonalLoop=1;jettySize=auto;html=1;entryX=0;entryY=0.5;entryDx=0;entryDy=0;strokeColor=light-dark(#000000,#00FF00);" parent="1" source="QOp0ti3etKmfNgTExBDU-6" target="QOp0ti3etKmfNgTExBDU-2" edge="1">
          <mxGeometry relative="1" as="geometry" />
        </mxCell>
        <mxCell id="QOp0ti3etKmfNgTExBDU-6" value="&lt;b&gt;Clicar no botão &quot;Inscreva-se&quot;&lt;/b&gt;" style="whiteSpace=wrap;html=1;strokeColor=light-dark(#000000,#00FF00);rounded=0;" parent="1" vertex="1">
          <mxGeometry x="250" y="210" width="120" height="60" as="geometry" />
        </mxCell>
        <mxCell id="QOp0ti3etKmfNgTExBDU-14" value="" style="edgeStyle=orthogonalEdgeStyle;rounded=0;orthogonalLoop=1;jettySize=auto;html=1;strokeColor=light-dark(#000000,#00FF00);" parent="1" source="QOp0ti3etKmfNgTExBDU-11" target="QOp0ti3etKmfNgTExBDU-13" edge="1">
          <mxGeometry relative="1" as="geometry" />
        </mxCell>
        <mxCell id="QOp0ti3etKmfNgTExBDU-16" value="" style="edgeStyle=orthogonalEdgeStyle;rounded=0;orthogonalLoop=1;jettySize=auto;html=1;strokeColor=light-dark(#000000,#00CC00);" parent="1" source="QOp0ti3etKmfNgTExBDU-11" target="QOp0ti3etKmfNgTExBDU-15" edge="1">
          <mxGeometry relative="1" as="geometry" />
        </mxCell>
        <mxCell id="QOp0ti3etKmfNgTExBDU-11" value="&lt;div&gt;&lt;b&gt;Já possui conta&amp;nbsp;&lt;/b&gt;&lt;/div&gt;&lt;div&gt;&lt;b&gt;na SIEEL?&lt;/b&gt;&lt;/div&gt;" style="rhombus;whiteSpace=wrap;html=1;fillColor=default;strokeColor=light-dark(#000000,#00FF00);" parent="1" vertex="1">
          <mxGeometry x="347.5" y="440" width="145" height="120" as="geometry" />
        </mxCell>
        <mxCell id="QOp0ti3etKmfNgTExBDU-28" style="edgeStyle=orthogonalEdgeStyle;rounded=0;orthogonalLoop=1;jettySize=auto;html=1;entryX=0;entryY=0.5;entryDx=0;entryDy=0;exitX=0.5;exitY=1;exitDx=0;exitDy=0;strokeColor=light-dark(#000000,#00FF00);" parent="1" source="QOp0ti3etKmfNgTExBDU-13" target="QOp0ti3etKmfNgTExBDU-19" edge="1">
          <mxGeometry relative="1" as="geometry">
            <Array as="points">
              <mxPoint x="190" y="760" />
            </Array>
          </mxGeometry>
        </mxCell>
        <mxCell id="QOp0ti3etKmfNgTExBDU-13" value="&lt;b&gt;SIM&lt;/b&gt;" style="whiteSpace=wrap;html=1;strokeColor=light-dark(#000000,#00FF00);" parent="1" vertex="1">
          <mxGeometry x="130" y="470" width="120" height="60" as="geometry" />
        </mxCell>
        <mxCell id="QOp0ti3etKmfNgTExBDU-18" value="" style="edgeStyle=orthogonalEdgeStyle;rounded=0;orthogonalLoop=1;jettySize=auto;html=1;strokeColor=light-dark(#000000,#00FF00);" parent="1" source="QOp0ti3etKmfNgTExBDU-15" target="QOp0ti3etKmfNgTExBDU-17" edge="1">
          <mxGeometry relative="1" as="geometry" />
        </mxCell>
        <mxCell id="QOp0ti3etKmfNgTExBDU-15" value="&lt;b&gt;NÃO&lt;/b&gt;" style="whiteSpace=wrap;html=1;strokeColor=light-dark(#000000,#00FF00);" parent="1" vertex="1">
          <mxGeometry x="600" y="470" width="120" height="60" as="geometry" />
        </mxCell>
        <mxCell id="QOp0ti3etKmfNgTExBDU-32" style="edgeStyle=orthogonalEdgeStyle;rounded=0;orthogonalLoop=1;jettySize=auto;html=1;strokeColor=light-dark(#000000,#00FF00);" parent="1" source="QOp0ti3etKmfNgTExBDU-17" target="QOp0ti3etKmfNgTExBDU-31" edge="1">
          <mxGeometry relative="1" as="geometry" />
        </mxCell>
        <mxCell id="QOp0ti3etKmfNgTExBDU-17" value="&lt;b&gt;Clicar no botão &quot;Cadastre-se&quot;&lt;/b&gt;" style="whiteSpace=wrap;html=1;strokeColor=light-dark(#000000,#00FF00);" parent="1" vertex="1">
          <mxGeometry x="600" y="600" width="120" height="60" as="geometry" />
        </mxCell>
        <mxCell id="QOp0ti3etKmfNgTExBDU-22" value="" style="edgeStyle=orthogonalEdgeStyle;rounded=0;orthogonalLoop=1;jettySize=auto;html=1;strokeColor=light-dark(#000000,#00CC00);entryX=0.5;entryY=0;entryDx=0;entryDy=0;" parent="1" source="QOp0ti3etKmfNgTExBDU-19" target="QOp0ti3etKmfNgTExBDU-30" edge="1">
          <mxGeometry relative="1" as="geometry">
            <mxPoint x="425" y="870" as="targetPoint" />
          </mxGeometry>
        </mxCell>
        <mxCell id="QOp0ti3etKmfNgTExBDU-19" value="&lt;b&gt;Fazer login&lt;/b&gt;" style="whiteSpace=wrap;html=1;strokeColor=light-dark(#000000,#00FF00);" parent="1" vertex="1">
          <mxGeometry x="365" y="730" width="120" height="60" as="geometry" />
        </mxCell>
        <mxCell id="QOp0ti3etKmfNgTExBDU-27" value="" style="edgeStyle=orthogonalEdgeStyle;rounded=0;orthogonalLoop=1;jettySize=auto;html=1;strokeColor=light-dark(#000000,#00FF00);exitX=0.5;exitY=1;exitDx=0;exitDy=0;" parent="1" source="QOp0ti3etKmfNgTExBDU-30" target="QOp0ti3etKmfNgTExBDU-26" edge="1">
          <mxGeometry relative="1" as="geometry">
            <mxPoint x="425" y="930" as="sourcePoint" />
          </mxGeometry>
        </mxCell>
        <mxCell id="QOp0ti3etKmfNgTExBDU-26" value="&lt;b&gt;Acessar à área do participante&lt;/b&gt;" style="whiteSpace=wrap;html=1;strokeColor=light-dark(#000000,#00CC00);rounded=1;" parent="1" vertex="1">
          <mxGeometry x="365" y="1010" width="120" height="60" as="geometry" />
        </mxCell>
        <mxCell id="QOp0ti3etKmfNgTExBDU-30" value="&lt;b&gt;Inserir o e-mail e senha cadastrados&lt;/b&gt;" style="shape=parallelogram;perimeter=parallelogramPerimeter;whiteSpace=wrap;html=1;fixedSize=1;strokeColor=light-dark(#000000,#00FF00);" parent="1" vertex="1">
          <mxGeometry x="333" y="870" width="185" height="70" as="geometry" />
        </mxCell>
        <mxCell id="QOp0ti3etKmfNgTExBDU-33" value="" style="edgeStyle=orthogonalEdgeStyle;rounded=0;orthogonalLoop=1;jettySize=auto;html=1;strokeColor=light-dark(#000000,#00FF00);" parent="1" source="QOp0ti3etKmfNgTExBDU-31" target="QOp0ti3etKmfNgTExBDU-19" edge="1">
          <mxGeometry relative="1" as="geometry" />
        </mxCell>
        <mxCell id="QOp0ti3etKmfNgTExBDU-31" value="&lt;div align=&quot;center&quot;&gt;&lt;b&gt;Preencher o&amp;nbsp;&lt;/b&gt;&lt;/div&gt;&lt;div align=&quot;center&quot;&gt;&lt;b&gt;formulário com suas informações&lt;/b&gt;&lt;/div&gt;" style="shape=parallelogram;perimeter=parallelogramPerimeter;whiteSpace=wrap;html=1;fixedSize=1;strokeColor=light-dark(#000000,#00FF00);align=center;" parent="1" vertex="1">
          <mxGeometry x="567.5" y="725" width="185" height="70" as="geometry" />
        </mxCell>
      </root>
    </mxGraphModel>
  </diagram>
</mxfile>
